<svg width="135" height="23" viewBox="0 0 135 23" fill="none" xmlns="http://www.w3.org/2000/svg">
<g clip-path="url(#clip0)">
<path d="M14.7414 2.93137L9.69608 10.5135L4.62255 2.93137H0V22.6618H4.03064V8.51225L9.49878 16.8272H9.8652L15.3615 8.51225V22.6618H19.3922V2.93137H14.7414Z" fill="white"/>
<path d="M25.1417 0C23.7324 0 22.6331 0.986518 22.6331 2.36765C22.6331 3.74877 23.7324 4.76348 25.1417 4.76348C26.6074 4.76348 27.6503 3.74877 27.6503 2.36765C27.6503 0.986518 26.6074 0 25.1417 0ZM23.1123 22.6618H27.1429V7.15931H23.1123V22.6618Z" fill="white"/>
<path d="M46.5243 6.82108C42.0709 6.82108 38.463 10.2316 38.463 14.9105C38.463 19.5613 42.0145 23 46.5243 23C51.0623 23 54.6138 19.5895 54.6138 14.9105C54.6138 10.2316 51.0059 6.82108 46.5243 6.82108ZM46.5243 10.6544C48.7792 10.6544 50.5268 12.3738 50.5268 14.9105C50.5268 17.4755 48.7792 19.1667 46.5243 19.1667C44.2694 19.1667 42.5219 17.4755 42.5219 14.9105C42.5219 12.3738 44.2694 10.6544 46.5243 10.6544Z" fill="white"/>
<path d="M65.9772 4.14338C66.5692 4.14338 67.2456 4.25613 67.9221 4.45343L68.4576 4.59436L69.1905 1.32475C68.204 0.873773 66.7383 0.620097 65.5263 0.620097C62.313 0.620097 59.2125 2.48039 59.2125 6.90564V7.15931H56.4503V10.9645H59.2125V22.6618H63.2432V10.9645H68.4013V7.15931H63.2432V7.10294C63.2432 5.10172 64.1451 4.14338 65.9772 4.14338Z" fill="white"/>
<path d="M79.7125 4.14338C80.3045 4.14338 80.9809 4.25613 81.6574 4.45343L82.1929 4.59436L82.9258 1.32475C81.9393 0.873773 80.4736 0.620097 79.2616 0.620097C76.0483 0.620097 72.9478 2.48039 72.9478 6.90564V7.15931H70.1856V10.9645H72.9478V22.6618H76.9785V10.9645H82.1366V7.15931H76.9785V7.10294C76.9785 5.10172 77.8804 4.14338 79.7125 4.14338Z" fill="white"/>
<path d="M86.6065 0C85.1972 0 84.0979 0.986518 84.0979 2.36765C84.0979 3.74877 85.1972 4.76348 86.6065 4.76348C88.0722 4.76348 89.1151 3.74877 89.1151 2.36765C89.1151 0.986518 88.0722 0 86.6065 0ZM84.5771 22.6618H88.6077V7.15931H84.5771V22.6618Z" fill="white"/>
<path d="M99.5387 23C103.259 23 106.67 20.8297 107.29 16.7426H103.147C102.667 18.4338 101.202 19.2794 99.5387 19.2794C97.1711 19.2794 95.5363 17.5037 95.5645 14.9105C95.5363 12.3456 97.1147 10.5417 99.5669 10.5417C101.202 10.5417 102.667 11.3591 103.147 13.0502H107.29C106.698 9.10417 103.344 6.82108 99.5669 6.82108C94.888 6.82108 91.4774 10.3162 91.4774 14.9105C91.4774 19.5049 94.888 23 99.5387 23Z" fill="white"/>
<path d="M117.569 6.82108C112.833 6.82108 109.479 10.288 109.479 14.9387C109.479 19.5613 112.805 23 117.653 23C120.979 23 124.08 21.3934 125.235 17.7292H121.064C120.528 18.9694 119.175 19.674 117.625 19.674C115.539 19.674 113.848 18.4338 113.594 15.9534H125.489C125.884 10.8517 122.699 6.82108 117.569 6.82108ZM117.541 10.1471C119.485 10.1471 120.754 11.3027 121.205 12.9939H113.792C114.299 11.3309 115.567 10.1471 117.541 10.1471Z" fill="white"/>
</g>
<defs>
<clipPath id="clip0">
<rect width="135" height="23" fill="white"/>
</clipPath>
</defs>
</svg>
