<svg width="12" height="12" viewBox="0 0 12 12" fill="none" xmlns="http://www.w3.org/2000/svg">
<g clip-path="url(#clip0)">
<path d="M11.864 3.017C11.824 2.96908 11.774 2.93048 11.7175 2.90388C11.661 2.87728 11.5994 2.86333 11.537 2.863H9.225V4.09C9.225 4.653 8.741 5.112 8.145 5.112C7.551 5.112 7.067 4.654 7.067 4.09V2.863H4.909V4.09C4.909 4.653 4.424 5.112 3.829 5.112C3.234 5.112 2.751 4.654 2.751 4.09V2.863H0.438003C0.375587 2.8634 0.314005 2.87738 0.257536 2.90397C0.201068 2.93057 0.151065 2.96913 0.111003 3.017C0.069565 3.06617 0.0386104 3.12329 0.0200387 3.18485C0.00146704 3.24641 -0.00433004 3.31112 0.00300317 3.375L0.779003 10.509C0.794003 11.315 1.421 11.964 2.19 11.964H9.785C10.555 11.964 11.181 11.315 11.196 10.509L11.972 3.375C11.9791 3.31113 11.9732 3.24648 11.9546 3.18495C11.9361 3.12342 11.9052 3.06629 11.864 3.017V3.017Z" fill="#FFC600"/>
<path d="M3.829 4.499C4.068 4.499 4.262 4.315 4.262 4.09V1.84C4.262 1.208 4.934 0.818 5.557 0.818H6.636C7.291 0.818 7.714 1.219 7.714 1.84V4.09C7.714 4.315 7.908 4.499 8.145 4.499C8.384 4.499 8.578 4.315 8.578 4.09V1.84C8.577 0.773 7.761 0 6.636 0H5.557C4.367 0 3.398 0.826 3.398 1.84V4.09C3.398 4.315 3.592 4.499 3.829 4.499V4.499Z" fill="#FFC600"/>
</g>
<defs>
<clipPath id="clip0">
<rect width="12" height="12" fill="white"/>
</clipPath>
</defs>
</svg>
