<svg width="160" height="35" viewBox="0 0 160 35" fill="none" xmlns="http://www.w3.org/2000/svg">
<path d="M13.4549 0.673077C18.1 0.673077 21.9763 2.29167 25.0837 5.52884C28.2232 8.73397 29.7929 12.7244 29.7929 17.5C29.7929 22.2756 28.2232 26.2821 25.0837 29.5192C21.9763 32.7244 18.1 34.3269 13.4549 34.3269H0V0.673077H13.4549ZM13.4549 26.9231C16.1138 26.9231 18.2602 26.0737 19.894 24.375C21.5598 22.6442 22.3928 20.3526 22.3928 17.5C22.3928 14.6474 21.5598 12.3718 19.894 10.6731C18.2602 8.94231 16.1138 8.07692 13.4549 8.07692H7.6885V26.9231H13.4549Z" fill="black"/>
<path d="M41.8043 26.9231H55.2592V34.3269H34.1158V0.673077H55.019V8.07692H41.8043V13.6538H53.8176V20.9615H41.8043V26.9231Z" fill="black"/>
<path d="M67.6701 34.3269L56.7139 0.673077H65.1232L72.5715 25.4327L80.0197 0.673077H88.429L77.4729 34.3269H67.6701Z" fill="black"/>
<path d="M91.3197 0.673077H99.0082V34.3269H91.3197V0.673077Z" fill="black"/>
<path d="M120.837 35C115.808 35 111.627 33.3333 108.296 30C104.996 26.6346 103.346 22.4679 103.346 17.5C103.346 12.5321 104.996 8.38141 108.296 5.04808C111.627 1.68269 115.808 0 120.837 0C123.849 0 126.636 0.705129 129.199 2.11539C131.762 3.49359 133.78 5.38461 135.253 7.78846L128.622 11.6346C127.885 10.3205 126.828 9.3109 125.451 8.60577C124.073 7.86859 122.535 7.5 120.837 7.5C117.858 7.5 115.472 8.41346 113.678 10.2404C111.916 12.0673 111.035 14.4872 111.035 17.5C111.035 20.5128 111.916 22.9327 113.678 24.7596C115.472 26.5865 117.858 27.5 120.837 27.5C122.535 27.5 124.073 27.1314 125.451 26.3942C126.86 25.657 127.917 24.6474 128.622 23.3654L135.253 27.2115C133.812 29.6154 131.81 31.5224 129.247 32.9327C126.684 34.3109 123.881 35 120.837 35Z" fill="black"/>
<path d="M146.545 26.9231H160V34.3269H138.857V0.673077H159.76V8.07692H146.545V13.6538H158.558V20.9615H146.545V26.9231Z" fill="black"/>
</svg>
