<svg enable-background="new 0 0 32 32" height="32" viewBox="0 0 32 32" width="32" xmlns="http://www.w3.org/2000/svg"><g fill="#fff"><path d="m20.916 16c0 2.728-2.211 4.938-4.938 4.938s-4.939-2.21-4.939-4.938c0-.394.051-.773.138-1.14h-.897v6.838h11.396v-6.838h-.897c.086.367.137.746.137 1.14z"/><path d="m15.978 18.659c1.466 0 2.659-1.193 2.659-2.659s-1.193-2.659-2.659-2.659-2.659 1.193-2.659 2.659 1.192 2.659 2.659 2.659z"/><path d="m18.637 10.302h3.039v3.039h-3.039z"/><path d="m16 0c-8.836 0-16 7.164-16 16 0 8.837 7.164 16 16 16 8.837 0 16-7.163 16-16 0-8.836-7.163-16-16-16zm7.955 21.698c0 1.254-1.025 2.279-2.279 2.279h-11.397c-1.253.001-2.279-1.025-2.279-2.279v-11.396c0-1.253 1.026-2.279 2.279-2.279h11.396c1.254 0 2.279 1.026 2.279 2.279v11.396z"/></g></svg>