<svg width="160" height="160" viewBox="0 0 160 160" fill="none" xmlns="http://www.w3.org/2000/svg">
<path d="M47.561 86.459H113.084C118.648 86.459 123.158 81.946 123.158 76.382V57.935C123.158 52.372 118.648 47.86 113.084 47.86H47.561C41.997 47.86 37.486 52.371 37.486 57.935V76.382C37.486 81.946 41.997 86.459 47.561 86.459V86.459ZM110.695 57.468C110.904 57.4627 111.113 57.4994 111.308 57.5759C111.503 57.6524 111.681 57.7671 111.831 57.9134C111.981 58.0597 112.1 58.2345 112.181 58.4275C112.263 58.6206 112.305 58.828 112.305 59.0375C112.305 59.247 112.263 59.4544 112.181 59.6474C112.1 59.8405 111.981 60.0153 111.831 60.1616C111.681 60.3078 111.503 60.4226 111.308 60.4991C111.113 60.5756 110.904 60.6123 110.695 60.607C110.286 60.5967 109.896 60.4268 109.611 60.1335C109.325 59.8403 109.165 59.447 109.165 59.0375C109.165 58.628 109.325 58.2346 109.611 57.9414C109.896 57.6482 110.286 57.4783 110.695 57.468V57.468ZM110.695 61.507C111.111 61.507 111.51 61.6723 111.804 61.9665C112.099 62.2608 112.264 62.6599 112.264 63.076C112.264 63.4921 112.099 63.8912 111.804 64.1854C111.51 64.4797 111.111 64.645 110.695 64.645C110.279 64.645 109.88 64.4797 109.586 64.1854C109.291 63.8912 109.126 63.4921 109.126 63.076C109.126 62.6599 109.291 62.2608 109.586 61.9665C109.88 61.6723 110.279 61.507 110.695 61.507ZM110.695 65.546C110.901 65.5459 111.105 65.5864 111.295 65.6652C111.486 65.744 111.659 65.8594 111.804 66.005C111.95 66.1506 112.066 66.3235 112.144 66.5138C112.223 66.7041 112.264 66.908 112.264 67.114C112.264 67.32 112.224 67.5239 112.145 67.7143C112.066 67.9046 111.951 68.0775 111.805 68.2232C111.659 68.3689 111.486 68.4845 111.296 68.5634C111.106 68.6423 110.902 68.6829 110.696 68.683C110.28 68.6831 109.881 68.518 109.587 68.2239C109.293 67.9299 109.127 67.531 109.127 67.115C109.127 66.699 109.292 66.3 109.586 66.0057C109.88 65.7115 110.279 65.5461 110.695 65.546V65.546ZM110.695 69.373C110.901 69.373 111.105 69.4137 111.296 69.4927C111.486 69.5716 111.659 69.6873 111.805 69.8332C111.951 69.979 112.066 70.1521 112.145 70.3426C112.224 70.5331 112.265 70.7373 112.264 70.9435C112.264 71.1497 112.224 71.3538 112.145 71.5443C112.066 71.7347 111.95 71.9078 111.804 72.0535C111.658 72.1992 111.485 72.3148 111.295 72.3937C111.104 72.4725 110.9 72.5131 110.694 72.513C110.278 72.5129 109.878 72.3473 109.584 72.0528C109.29 71.7583 109.124 71.3589 109.124 70.9425C109.125 70.5261 109.29 70.1268 109.585 69.8325C109.879 69.5381 110.279 69.3729 110.695 69.373ZM110.695 73.412C111.111 73.4119 111.51 73.577 111.804 73.871C112.098 74.1651 112.264 74.564 112.264 74.98C112.264 75.396 112.099 75.795 111.805 76.0892C111.511 76.3835 111.112 76.5489 110.696 76.549C110.49 76.5491 110.286 76.5085 110.096 76.4298C109.905 76.351 109.732 76.2355 109.587 76.0899C109.293 75.7959 109.127 75.397 109.127 74.981C109.127 74.565 109.292 74.166 109.586 73.8717C109.88 73.5775 110.279 73.4121 110.695 73.412V73.412ZM106.656 57.468C107.523 57.468 108.224 58.171 108.224 59.038C108.224 59.4538 108.059 59.8527 107.765 60.1467C107.471 60.4408 107.072 60.606 106.656 60.606C106.24 60.606 105.841 60.4408 105.547 60.1467C105.253 59.8527 105.088 59.4538 105.088 59.038C105.088 58.17 105.791 57.468 106.656 57.468ZM106.656 73.412C106.865 73.4067 107.073 73.4433 107.268 73.5197C107.463 73.5961 107.64 73.7108 107.79 73.8568C107.94 74.0029 108.059 74.1775 108.14 74.3703C108.222 74.5631 108.264 74.7702 108.264 74.9795C108.264 75.1887 108.222 75.3959 108.14 75.5887C108.059 75.7815 107.94 75.9561 107.79 76.1021C107.64 76.2482 107.463 76.3628 107.268 76.4392C107.073 76.5156 106.865 76.5523 106.656 76.547C106.247 76.5367 105.858 76.367 105.573 76.0741C105.287 75.7813 105.128 75.3885 105.128 74.9795C105.128 74.5705 105.287 74.1777 105.573 73.8848C105.858 73.592 106.247 73.4223 106.656 73.412V73.412ZM102.619 57.468C103.035 57.4684 103.435 57.6342 103.729 57.9289C104.023 58.2236 104.188 58.6231 104.187 59.0395C104.187 59.4559 104.021 59.8551 103.727 60.1492C103.432 60.4434 103.032 60.6084 102.616 60.608C102.41 60.6078 102.206 60.567 102.015 60.4879C101.825 60.4088 101.652 60.293 101.506 60.1471C101.212 59.8524 101.047 59.4529 101.047 59.0365C101.048 58.6201 101.214 58.2209 101.508 57.9268C101.803 57.6326 102.203 57.4676 102.619 57.468V57.468ZM102.619 61.507C102.828 61.5019 103.037 61.5388 103.232 61.6155C103.427 61.6922 103.604 61.8071 103.754 61.9535C103.904 62.0999 104.023 62.2748 104.104 62.468C104.186 62.6611 104.227 62.8685 104.227 63.078C104.227 63.2875 104.185 63.4949 104.103 63.6879C104.022 63.8808 103.902 64.0555 103.752 64.2016C103.602 64.3478 103.424 64.4624 103.229 64.5387C103.034 64.615 102.825 64.6515 102.616 64.646C102.207 64.6353 101.818 64.465 101.532 64.1715C101.246 63.878 101.087 63.4846 101.087 63.075C101.087 62.6655 101.248 62.2723 101.534 61.9794C101.82 61.6864 102.21 61.5169 102.619 61.507V61.507ZM102.619 65.546C103.035 65.5462 103.434 65.7118 103.728 66.0062C104.022 66.3007 104.187 66.6999 104.187 67.116C104.187 67.5321 104.021 67.9311 103.727 68.2251C103.432 68.5192 103.033 68.6842 102.617 68.684C102.411 68.6839 102.207 68.6431 102.017 68.5642C101.826 68.4852 101.653 68.3695 101.508 68.2237C101.214 67.9293 101.049 67.5301 101.049 67.114C101.049 66.6979 101.215 66.2989 101.509 66.0048C101.804 65.7108 102.203 65.5457 102.619 65.546ZM102.619 69.373C103.035 69.373 103.434 69.5383 103.728 69.8325C104.023 70.1268 104.188 70.5259 104.188 70.942C104.188 71.3581 104.023 71.7572 103.728 72.0514C103.434 72.3457 103.035 72.511 102.619 72.511C102.203 72.511 101.804 72.3457 101.51 72.0514C101.215 71.7572 101.05 71.3581 101.05 70.942C101.05 70.5259 101.215 70.1268 101.51 69.8325C101.804 69.5383 102.203 69.373 102.619 69.373ZM102.619 73.412C102.825 73.4121 103.029 73.4528 103.219 73.5318C103.41 73.6108 103.583 73.7265 103.728 73.8722C103.874 74.018 103.989 74.1911 104.068 74.3815C104.147 74.5719 104.187 74.7759 104.187 74.982C104.187 75.188 104.146 75.392 104.067 75.5823C103.988 75.7726 103.873 75.9455 103.727 76.0911C103.581 76.2367 103.408 76.3522 103.217 76.4309C103.027 76.5097 102.823 76.5501 102.617 76.55C102.201 76.5497 101.802 76.3842 101.508 76.0897C101.214 75.7953 101.049 75.3961 101.049 74.98C101.049 74.5639 101.215 74.1649 101.509 73.8708C101.804 73.5768 102.203 73.4117 102.619 73.412ZM94.965 57.468C95.832 57.468 96.533 58.171 96.533 59.038C96.533 59.4538 96.3678 59.8527 96.0737 60.1467C95.7797 60.4408 95.3808 60.606 94.965 60.606C94.5491 60.606 94.1503 60.4408 93.8562 60.1467C93.5622 59.8527 93.397 59.4538 93.397 59.038C93.3967 58.8319 93.4371 58.6278 93.5158 58.4373C93.5945 58.2469 93.7099 58.0738 93.8555 57.9279C94.0012 57.7821 94.1741 57.6665 94.3645 57.5875C94.5548 57.5086 94.7589 57.468 94.965 57.468V57.468ZM94.965 65.546C95.2751 65.546 95.5782 65.6379 95.836 65.8102C96.0939 65.9824 96.2948 66.2272 96.4135 66.5137C96.5322 66.8002 96.5634 67.1154 96.5029 67.4195C96.4425 67.7237 96.2933 68.003 96.0741 68.2224C95.8549 68.4417 95.5756 68.5911 95.2715 68.6517C94.9674 68.7123 94.6522 68.6814 94.3656 68.5629C94.0791 68.4444 93.8341 68.2436 93.6617 67.9858C93.4893 67.7281 93.3972 67.4251 93.397 67.115C93.3969 66.909 93.4373 66.705 93.5161 66.5146C93.5948 66.3243 93.7103 66.1513 93.8559 66.0056C94.0015 65.8599 94.1744 65.7443 94.3647 65.6654C94.555 65.5866 94.759 65.546 94.965 65.546V65.546ZM94.965 69.427C95.1756 69.4196 95.3856 69.4547 95.5823 69.5303C95.7791 69.6058 95.9586 69.7202 96.1102 69.8666C96.2618 70.0131 96.3823 70.1886 96.4645 70.3826C96.5468 70.5766 96.5891 70.7853 96.589 70.996C96.5889 71.2068 96.5463 71.4154 96.4638 71.6093C96.3812 71.8032 96.2605 71.9785 96.1087 72.1248C95.957 72.271 95.7773 72.3852 95.5805 72.4605C95.3836 72.5358 95.1736 72.5706 94.963 72.563C94.5568 72.5482 94.1722 72.3764 93.8902 72.0838C93.6082 71.7911 93.4507 71.4004 93.451 70.994C93.4513 70.5876 93.6092 70.1971 93.8916 69.9048C94.174 69.6125 94.5588 69.4412 94.965 69.427V69.427ZM94.965 73.412C95.1742 73.4067 95.3823 73.4433 95.5771 73.5197C95.7719 73.5961 95.9494 73.7108 96.0992 73.8568C96.2491 74.0029 96.3681 74.1775 96.4494 74.3703C96.5307 74.5631 96.5726 74.7702 96.5726 74.9795C96.5726 75.1887 96.5307 75.3959 96.4494 75.5887C96.3681 75.7815 96.2491 75.9561 96.0992 76.1021C95.9494 76.2482 95.7719 76.3628 95.5771 76.4392C95.3823 76.5156 95.1742 76.5523 94.965 76.547C94.5561 76.5367 94.1675 76.367 93.8819 76.0741C93.5964 75.7813 93.4366 75.3885 93.4366 74.9795C93.4366 74.5705 93.5964 74.1777 93.8819 73.8848C94.1675 73.592 94.5561 73.4223 94.965 73.412V73.412ZM90.926 57.468C91.1322 57.468 91.3363 57.5086 91.5268 57.5875C91.7173 57.6664 91.8904 57.782 92.0361 57.9278C92.1819 58.0736 92.2976 58.2467 92.3765 58.4372C92.4554 58.6277 92.496 58.8318 92.496 59.038C92.496 59.2442 92.4554 59.4483 92.3765 59.6388C92.2976 59.8293 92.1819 60.0024 92.0361 60.1481C91.8904 60.2939 91.7173 60.4096 91.5268 60.4885C91.3363 60.5674 91.1322 60.608 90.926 60.608C90.5096 60.608 90.1103 60.4426 89.8158 60.1481C89.5214 59.8537 89.356 59.4544 89.356 59.038C89.356 58.6216 89.5214 58.2223 89.8158 57.9278C90.1103 57.6334 90.5096 57.468 90.926 57.468V57.468ZM90.926 65.546C91.1354 65.5406 91.3438 65.5773 91.5389 65.6537C91.734 65.7301 91.9118 65.8448 92.0618 65.991C92.2119 66.1373 92.3311 66.312 92.4126 66.5051C92.494 66.6981 92.536 66.9055 92.5361 67.115C92.5362 67.3245 92.4943 67.5319 92.413 67.725C92.3316 67.918 92.2125 68.0929 92.0625 68.2392C91.9126 68.3855 91.7348 68.5003 91.5398 68.5769C91.3448 68.6535 91.1364 68.6902 90.927 68.685C90.5176 68.6748 90.1284 68.505 89.8424 68.2119C89.5564 67.9188 89.3962 67.5255 89.3961 67.116C89.396 66.7064 89.5559 66.3131 89.8417 66.0198C90.1275 65.7265 90.5166 65.5564 90.926 65.546V65.546ZM90.926 73.412C91.1354 73.4066 91.3438 73.4433 91.5389 73.5197C91.734 73.5961 91.9118 73.7108 92.0618 73.857C92.2119 74.0033 92.3311 74.178 92.4126 74.3711C92.494 74.5641 92.536 74.7715 92.5361 74.981C92.5362 75.1905 92.4943 75.3979 92.413 75.591C92.3316 75.784 92.2125 75.9589 92.0625 76.1052C91.9126 76.2515 91.7348 76.3663 91.5398 76.4429C91.3448 76.5195 91.1364 76.5562 90.927 76.551C90.5176 76.5408 90.1284 76.371 89.8424 76.0779C89.5564 75.7848 89.3962 75.3915 89.3961 74.982C89.396 74.5724 89.5559 74.1791 89.8417 73.8858C90.1275 73.5925 90.5166 73.4224 90.926 73.412V73.412ZM86.888 57.468C87.2974 57.4783 87.6865 57.6482 87.9725 57.9414C88.2584 58.2346 88.4184 58.628 88.4184 59.0375C88.4184 59.447 88.2584 59.8403 87.9725 60.1335C87.6865 60.4268 87.2974 60.5967 86.888 60.607C86.682 60.607 86.478 60.5664 86.2877 60.4875C86.0974 60.4087 85.9245 60.2931 85.7789 60.1474C85.6333 60.0017 85.5178 59.8287 85.4391 59.6383C85.3603 59.448 85.3199 59.244 85.32 59.038C85.3196 58.8319 85.3599 58.6277 85.4385 58.4372C85.5171 58.2466 85.6326 58.0735 85.7782 57.9277C85.9239 57.7818 86.0969 57.6661 86.2873 57.5873C86.4778 57.5084 86.6819 57.4679 86.888 57.468ZM86.888 61.507C87.1013 61.495 87.3148 61.5267 87.5154 61.6001C87.7161 61.6735 87.8996 61.787 88.0548 61.9338C88.21 62.0806 88.3337 62.2575 88.4181 62.4538C88.5026 62.65 88.5461 62.8614 88.5461 63.075C88.546 63.2886 88.5023 63.5 88.4177 63.6962C88.3331 63.8924 88.2094 64.0692 88.0541 64.2159C87.8988 64.3626 87.7152 64.476 87.5145 64.5493C87.3138 64.6226 87.1003 64.6541 86.887 64.642C86.4866 64.6192 86.1101 64.4441 85.8347 64.1525C85.5593 63.861 85.4059 63.4751 85.4061 63.074C85.4062 62.673 85.5598 62.2872 85.8354 61.9958C86.1109 61.7044 86.4876 61.5295 86.888 61.507V61.507ZM86.888 65.546C87.0942 65.546 87.2983 65.5867 87.4888 65.6657C87.6792 65.7446 87.8523 65.8603 87.998 66.0062C88.1437 66.152 88.2593 66.3251 88.3382 66.5156C88.417 66.7061 88.4576 66.9103 88.4575 67.1165C88.4574 67.3227 88.4168 67.5268 88.3378 67.7173C88.2588 67.9077 88.1431 68.0808 87.9973 68.2265C87.8515 68.3722 87.6783 68.4878 87.4878 68.5667C87.2973 68.6455 87.0932 68.6861 86.887 68.686C86.4706 68.6859 86.0713 68.5203 85.777 68.2258C85.4826 67.9313 85.3174 67.5319 85.3175 67.1155C85.3176 66.6991 85.4832 66.2998 85.7777 66.0055C86.0722 65.7111 86.4716 65.5459 86.888 65.546V65.546ZM86.888 73.412C87.2921 73.4297 87.6738 73.6026 87.9535 73.8949C88.2332 74.1871 88.3894 74.576 88.3894 74.9805C88.3894 75.385 88.2332 75.7739 87.9535 76.0661C87.6738 76.3583 87.2921 76.5313 86.888 76.549C86.4789 76.5387 86.09 76.3689 85.8042 76.0758C85.5185 75.7828 85.3586 75.3897 85.3586 74.9805C85.3586 74.5712 85.5185 74.1782 85.8042 73.8851C86.09 73.5921 86.4789 73.4223 86.888 73.412V73.412ZM78.598 57.468C78.8074 57.4627 79.0158 57.4994 79.2109 57.5759C79.4059 57.6524 79.5837 57.7671 79.7337 57.9134C79.8837 58.0597 80.0029 58.2345 80.0843 58.4275C80.1657 58.6206 80.2076 58.828 80.2076 59.0375C80.2076 59.247 80.1657 59.4544 80.0843 59.6474C80.0029 59.8405 79.8837 60.0153 79.7337 60.1616C79.5837 60.3078 79.4059 60.4226 79.2109 60.4991C79.0158 60.5756 78.8074 60.6123 78.598 60.607C78.1886 60.5967 77.7994 60.4268 77.5135 60.1335C77.2276 59.8403 77.0676 59.447 77.0676 59.0375C77.0676 58.628 77.2276 58.2346 77.5135 57.9414C77.7994 57.6482 78.1886 57.4783 78.598 57.468V57.468ZM78.598 61.507C79.0141 61.507 79.4132 61.6723 79.7074 61.9665C80.0017 62.2608 80.167 62.6599 80.167 63.076C80.167 63.4921 80.0017 63.8912 79.7074 64.1854C79.4132 64.4797 79.0141 64.645 78.598 64.645C78.1819 64.645 77.7828 64.4797 77.4885 64.1854C77.1943 63.8912 77.029 63.4921 77.029 63.076C77.029 62.6599 77.1943 62.2608 77.4885 61.9665C77.7828 61.6723 78.1819 61.507 78.598 61.507V61.507ZM78.598 65.546C78.804 65.5459 79.0079 65.5864 79.1983 65.6652C79.3886 65.744 79.5615 65.8594 79.7072 66.005C79.8529 66.1506 79.9685 66.3235 80.0474 66.5138C80.1263 66.7041 80.1669 66.908 80.167 67.114C80.1671 67.32 80.1266 67.5239 80.0478 67.7143C79.969 67.9046 79.8535 68.0775 79.7079 68.2232C79.5623 68.3689 79.3895 68.4845 79.1992 68.5634C79.0089 68.6423 78.805 68.6829 78.599 68.683C78.183 68.6831 77.784 68.518 77.4897 68.2239C77.1955 67.9299 77.0301 67.531 77.03 67.115C77.0299 66.699 77.195 66.3 77.489 66.0057C77.7831 65.7115 78.182 65.5461 78.598 65.546V65.546ZM78.598 69.427C79.014 69.427 79.4129 69.5922 79.7071 69.8864C80.0012 70.1805 80.1665 70.5795 80.1665 70.9955C80.1665 71.4115 80.0012 71.8104 79.7071 72.1046C79.4129 72.3987 79.014 72.564 78.598 72.564C78.1889 72.5537 77.8 72.3839 77.5142 72.0908C77.2285 71.7978 77.0686 71.4048 77.0686 70.9955C77.0686 70.5862 77.2285 70.1932 77.5142 69.9001C77.8 69.6071 78.1889 69.4373 78.598 69.427V69.427ZM78.598 73.412C79.014 73.4119 79.413 73.577 79.7072 73.871C80.0015 74.1651 80.1669 74.564 80.167 74.98C80.1671 75.396 80.002 75.795 79.7079 76.0892C79.4139 76.3835 79.015 76.5489 78.599 76.549C78.393 76.5491 78.189 76.5085 77.9987 76.4298C77.8084 76.351 77.6354 76.2355 77.4897 76.0899C77.1955 75.7959 77.0301 75.397 77.03 74.981C77.0299 74.565 77.195 74.166 77.489 73.8717C77.7831 73.5775 78.182 73.4121 78.598 73.412V73.412ZM74.559 61.507C74.9748 61.507 75.3737 61.6722 75.6677 61.9662C75.9618 62.2603 76.127 62.6591 76.127 63.075C76.127 63.4908 75.9618 63.8897 75.6677 64.1837C75.3737 64.4778 74.9748 64.643 74.559 64.643C74.1431 64.643 73.7443 64.4778 73.4502 64.1837C73.1562 63.8897 72.991 63.4908 72.991 63.075C72.991 62.6591 73.1562 62.2603 73.4502 61.9662C73.7443 61.6722 74.1431 61.507 74.559 61.507V61.507ZM66.057 61.295C66.2703 61.283 66.4838 61.3147 66.6844 61.3881C66.8851 61.4615 67.0686 61.575 67.2238 61.7218C67.379 61.8686 67.5027 62.0455 67.5871 62.2418C67.6716 62.438 67.7151 62.6494 67.7151 62.863C67.715 63.0766 67.6713 63.288 67.5867 63.4842C67.5021 63.6804 67.3784 63.8572 67.2231 64.0039C67.0678 64.1506 66.8842 64.264 66.6835 64.3373C66.4828 64.4106 66.2693 64.4421 66.056 64.43C65.6556 64.4072 65.2791 64.2321 65.0037 63.9405C64.7283 63.649 64.5749 63.2631 64.5751 62.862C64.5752 62.461 64.7288 62.0752 65.0044 61.7838C65.2799 61.4924 65.6566 61.3175 66.057 61.295V61.295ZM66.057 65.333C66.2632 65.3332 66.4674 65.374 66.6579 65.4531C66.8483 65.5322 67.0214 65.6481 67.1671 65.794C67.3128 65.94 67.4283 66.1132 67.507 66.3039C67.5858 66.4945 67.6262 66.6987 67.626 66.905C67.6258 67.1112 67.585 67.3154 67.5059 67.5059C67.4268 67.6963 67.3109 67.8694 67.1649 68.0151C67.019 68.1608 66.8457 68.2763 66.6551 68.355C66.4645 68.4338 66.2602 68.4742 66.054 68.474C65.6375 68.4736 65.2382 68.3077 64.9439 68.0129C64.6497 67.7181 64.4846 67.3185 64.485 66.902C64.4854 66.4855 64.6512 66.0862 64.946 65.7919C65.2408 65.4977 65.6405 65.3326 66.057 65.333V65.333ZM62.018 57.255C62.4344 57.2554 62.8336 57.4212 63.1277 57.7159C63.4219 58.0106 63.5869 58.4101 63.5865 58.8265C63.5861 59.2429 63.4203 59.6421 63.1256 59.9362C62.8309 60.2304 62.4314 60.3954 62.015 60.395C61.8088 60.3948 61.6047 60.354 61.4143 60.2749C61.2239 60.1958 61.0509 60.08 60.9053 59.9341C60.6111 59.6394 60.4461 59.2399 60.4465 58.8235C60.4469 58.4071 60.6127 58.0079 60.9074 57.7138C61.2021 57.4196 61.6016 57.2546 62.018 57.255V57.255ZM62.018 61.295C62.2274 61.2899 62.4358 61.3268 62.6308 61.4035C62.8257 61.4802 63.0034 61.5951 63.1532 61.7415C63.3031 61.8879 63.4221 62.0628 63.5033 62.256C63.5846 62.4491 63.6263 62.6565 63.6261 62.866C63.6259 63.0755 63.5838 63.2829 63.5022 63.4759C63.4206 63.6688 63.3012 63.8435 63.1511 63.9896C63.0009 64.1358 62.8231 64.2504 62.628 64.3267C62.4328 64.403 62.2244 64.4395 62.015 64.434C61.6056 64.4233 61.2166 64.253 60.931 63.9595C60.6453 63.666 60.4857 63.2726 60.4861 62.863C60.4865 62.4535 60.6469 62.0603 60.9331 61.7674C61.2193 61.4744 61.6086 61.3049 62.018 61.295V61.295ZM62.018 65.333C62.2242 65.3332 62.4283 65.374 62.6187 65.4531C62.8091 65.5321 62.9821 65.648 63.1277 65.7939C63.2734 65.9398 63.3888 66.113 63.4676 66.3036C63.5463 66.4941 63.5867 66.6983 63.5865 66.9045C63.5863 67.1107 63.5455 67.3148 63.4664 67.5052C63.3873 67.6956 63.2715 67.8686 63.1256 68.0142C62.9797 68.1599 62.8065 68.2753 62.6159 68.354C62.4254 68.4328 62.2212 68.4732 62.015 68.473C61.5986 68.4726 61.1994 68.3068 60.9053 68.0121C60.6111 67.7174 60.4461 67.3179 60.4465 66.9015C60.4469 66.4851 60.6127 66.0859 60.9074 65.7918C61.2021 65.4976 61.6016 65.3326 62.018 65.333V65.333ZM62.018 69.373C62.2273 69.3678 62.4355 69.4045 62.6304 69.481C62.8253 69.5575 63.003 69.6723 63.1528 69.8185C63.3027 69.9647 63.4218 70.1394 63.503 70.3324C63.5843 70.5253 63.6262 70.7326 63.6261 70.942C63.626 71.1514 63.5841 71.3586 63.5027 71.5515C63.4212 71.7444 63.3021 71.9191 63.1521 72.0652C63.0021 72.2113 62.8245 72.326 62.6295 72.4024C62.4346 72.4787 62.2263 72.5153 62.017 72.51C61.6079 72.4995 61.219 72.3296 60.9334 72.0365C60.6478 71.7434 60.488 71.3503 60.4881 70.941C60.4882 70.5317 60.6483 70.1387 60.9341 69.8458C61.2199 69.5528 61.6089 69.3832 62.018 69.373ZM57.764 61.295C58.1801 61.295 58.5792 61.4603 58.8734 61.7545C59.1677 62.0488 59.333 62.4479 59.333 62.864C59.333 63.2801 59.1677 63.6792 58.8734 63.9734C58.5792 64.2677 58.1801 64.433 57.764 64.433C57.3479 64.433 56.9488 64.2677 56.6545 63.9734C56.3603 63.6792 56.195 63.2801 56.195 62.864C56.195 62.4479 56.3603 62.0488 56.6545 61.7545C56.9488 61.4603 57.3479 61.295 57.764 61.295V61.295ZM57.764 65.333C57.9734 65.3277 58.1818 65.3644 58.3769 65.4409C58.5719 65.5174 58.7497 65.6321 58.8997 65.7784C59.0497 65.9247 59.1689 66.0995 59.2503 66.2925C59.3317 66.4856 59.3736 66.693 59.3736 66.9025C59.3736 67.112 59.3317 67.3194 59.2503 67.5124C59.1689 67.7055 59.0497 67.8803 58.8997 68.0266C58.7497 68.1728 58.5719 68.2876 58.3769 68.3641C58.1818 68.4406 57.9734 68.4773 57.764 68.472C57.3546 68.4617 56.9654 68.2918 56.6795 67.9985C56.3936 67.7053 56.2336 67.312 56.2336 66.9025C56.2336 66.493 56.3936 66.0996 56.6795 65.8064C56.9654 65.5132 57.3546 65.3433 57.764 65.333V65.333ZM57.764 69.373C57.9702 69.373 58.1743 69.4137 58.3648 69.4927C58.5552 69.5716 58.7283 69.6873 58.874 69.8332C59.0197 69.979 59.1353 70.1521 59.2142 70.3426C59.293 70.5331 59.3336 70.7373 59.3335 70.9435C59.3334 71.1497 59.2928 71.3538 59.2138 71.5443C59.1348 71.7347 59.0191 71.9078 58.8733 72.0535C58.7275 72.1992 58.5544 72.3148 58.3638 72.3937C58.1733 72.4725 57.9692 72.5131 57.763 72.513C57.3466 72.5129 56.9473 72.3473 56.653 72.0528C56.3586 71.7583 56.1934 71.3589 56.1935 70.9425C56.1936 70.5261 56.3592 70.1268 56.6537 69.8325C56.9482 69.5381 57.3476 69.3729 57.764 69.373ZM57.764 73.412C58.18 73.4119 58.579 73.577 58.8732 73.871C59.1675 74.1651 59.3329 74.564 59.333 74.98C59.3331 75.396 59.168 75.795 58.8739 76.0892C58.5799 76.3835 58.181 76.5489 57.765 76.549C57.559 76.5491 57.355 76.5085 57.1647 76.4298C56.9744 76.351 56.8014 76.2355 56.6557 76.0899C56.3615 75.7959 56.1961 75.397 56.196 74.981C56.1959 74.565 56.361 74.166 56.655 73.8717C56.9491 73.5775 57.348 73.4121 57.764 73.412V73.412ZM53.3 61.295C53.7162 61.2947 54.1155 61.4597 54.4101 61.7538C54.7047 62.0478 54.8705 62.4468 54.871 62.863C54.871 63.2794 54.7056 63.6787 54.4111 63.9731C54.1167 64.2676 53.7174 64.433 53.301 64.433C52.8846 64.433 52.4853 64.2676 52.1908 63.9731C51.8964 63.6787 51.731 63.2794 51.731 62.863C51.7315 62.4471 51.897 62.0484 52.1912 61.7545C52.4853 61.4605 52.8841 61.2953 53.3 61.295V61.295ZM53.3 65.333C53.5109 65.3255 53.7211 65.3605 53.9182 65.436C54.1152 65.5115 54.2951 65.6259 54.4469 65.7725C54.5988 65.919 54.7195 66.0946 54.802 66.2889C54.8845 66.4831 54.927 66.692 54.927 66.903C54.927 67.114 54.8845 67.3229 54.802 67.5171C54.7195 67.7113 54.5988 67.887 54.4469 68.0335C54.2951 68.18 54.1152 68.2945 53.9182 68.37C53.7211 68.4455 53.5109 68.4805 53.3 68.473C52.8933 68.4585 52.5081 68.2867 52.2255 67.9939C51.943 67.701 51.785 67.3099 51.785 66.903C51.785 66.496 51.943 66.105 52.2255 65.8121C52.5081 65.5193 52.8933 65.3475 53.3 65.333V65.333ZM49.263 61.295C49.4763 61.283 49.6898 61.3147 49.8904 61.3881C50.0911 61.4615 50.2746 61.575 50.4298 61.7218C50.585 61.8686 50.7087 62.0455 50.7931 62.2418C50.8776 62.438 50.9211 62.6494 50.9211 62.863C50.921 63.0766 50.8773 63.288 50.7927 63.4842C50.7081 63.6804 50.5844 63.8572 50.4291 64.0039C50.2738 64.1506 50.0902 64.264 49.8895 64.3373C49.6888 64.4106 49.4753 64.4421 49.262 64.43C48.8616 64.4072 48.4851 64.2321 48.2097 63.9405C47.9343 63.649 47.7809 63.2631 47.7811 62.862C47.7812 62.461 47.9348 62.0752 48.2104 61.7838C48.4859 61.4924 48.8626 61.3175 49.263 61.295V61.295ZM49.263 65.333C49.6794 65.333 50.0787 65.4984 50.3731 65.7928C50.6676 66.0873 50.833 66.4866 50.833 66.903C50.833 67.3194 50.6676 67.7187 50.3731 68.0131C50.0787 68.3076 49.6794 68.473 49.263 68.473C48.8466 68.473 48.4473 68.3076 48.1528 68.0131C47.8584 67.7187 47.693 67.3194 47.693 66.903C47.693 66.4866 47.8584 66.0873 48.1528 65.7928C48.4473 65.4984 48.8466 65.333 49.263 65.333V65.333Z" fill="#363636"/>
<path d="M125.967 52.074C126.719 53.515 127.176 55.154 127.176 56.892V77.994C127.176 82.61 124.084 86.521 119.93 87.894C118.605 91.881 116.152 95.748 111.879 98.326C103.203 103.557 80.755 103.163 80.681 103.163C80.603 103.163 58.168 103.558 49.492 98.326C45.276 95.781 42.784 91.979 41.45 88.047C37.032 86.838 33.694 82.796 33.694 77.994V56.893C33.694 55.205 34.121 53.611 34.833 52.2C31.17 53.109 27 54.918 27 58.434V88.417C27 98.668 38.839 112.85 80.657 112.85C122.477 112.85 134.314 98.668 134.314 88.417V58.434C134.313 54.75 129.738 52.94 125.967 52.074V52.074Z" fill="#363636"/>
</svg>
