<svg width="160" height="160" viewBox="0 0 160 160" fill="none" xmlns="http://www.w3.org/2000/svg">
<path fill-rule="evenodd" clip-rule="evenodd" d="M96.038 37C96.771 37 97.349 37.754 97.349 38.49H97.348V42.012H51.672V38.49C51.672 37.754 52.32 37 53.053 37H96.038ZM88.605 118.809H98.202C98.735 118.809 99.132 119.245 99.132 119.78V122.953C99.132 123.488 98.735 124.001 98.202 124.001H72.13C71.598 124.001 71.12 123.488 71.12 122.953V119.781C71.12 119.246 71.597 118.809 72.13 118.809H81.648V116.483H62.863C62.386 117.913 61.105 118.809 59.594 118.809H47.559C45.642 118.809 44 117.253 44 115.329V112.311C44 110.387 45.642 108.784 47.559 108.785H59.593C61.017 108.785 62.237 109.679 62.774 110.933H81.647V108.426H88.605V118.809ZM102.122 45.7361C103.343 46.6467 104.236 47.9289 104.666 49.39C110.89 53.57 115.021 60.672 115.022 68.751C115.033 72.5167 114.129 76.2288 112.387 79.5673C110.644 82.9058 108.117 85.7706 105.021 87.915V98.261C105.021 102.173 101.793 105.382 97.895 105.382H51.148C47.25 105.382 44 102.173 44 98.261V51.361C44 47.449 47.25 44.34 51.148 44.34H97.895C99.4181 44.3356 100.902 44.8255 102.122 45.7361ZM50.337 93.23C50.337 96.501 52.979 99.151 56.238 99.151C59.497 99.151 62.14 96.501 62.14 93.23C62.14 89.96 59.497 87.308 56.238 87.308C52.979 87.308 50.337 89.96 50.337 93.23ZM62.0917 67.0896C62.1628 66.9172 62.1993 66.7325 62.199 66.546H62.198V52.386C62.1984 52.1994 62.162 52.0146 62.091 51.8421C62.0199 51.6696 61.9155 51.5128 61.7839 51.3807C61.6522 51.2485 61.4957 51.1436 61.3235 51.072C61.1512 51.0003 60.9666 50.9633 60.78 50.963H51.841C51.6544 50.9633 51.4698 51.0003 51.2975 51.072C51.1253 51.1436 50.9688 51.2485 50.8371 51.3807C50.7055 51.5128 50.6011 51.6696 50.53 51.8421C50.459 52.0146 50.4226 52.1994 50.423 52.386V66.546C50.4227 66.7325 50.4592 66.9172 50.5303 67.0896C50.6014 67.2619 50.7058 67.4186 50.8375 67.5507C50.9692 67.6827 51.1256 67.7875 51.2977 67.8591C51.4699 67.9307 51.6545 67.9677 51.841 67.968H60.781C60.9675 67.9677 61.1521 67.9307 61.3243 67.8591C61.4964 67.7875 61.6528 67.6827 61.7845 67.5507C61.9162 67.4186 62.0206 67.2619 62.0917 67.0896ZM71.705 68.735C71.705 79.848 80.686 88.858 91.762 88.858C102.839 88.858 111.82 79.849 111.82 68.735C111.82 57.621 102.839 48.611 91.762 48.611C80.685 48.611 71.705 57.622 71.705 68.735ZM103.95 68.735C103.95 75.4889 98.4933 80.964 91.762 80.964C85.0308 80.964 79.574 75.4889 79.574 68.735C79.574 61.9811 85.0308 56.506 91.762 56.506C98.4933 56.506 103.95 61.9811 103.95 68.735ZM75.562 70.171C76.3545 70.171 76.997 69.5285 76.997 68.736C76.997 67.9435 76.3545 67.301 75.562 67.301C74.7695 67.301 74.127 67.9435 74.127 68.736C74.127 69.5285 74.7695 70.171 75.562 70.171ZM109.398 68.736C109.398 69.5285 108.756 70.171 107.963 70.171C107.17 70.171 106.528 69.5285 106.528 68.736C106.528 67.9435 107.17 67.301 107.963 67.301C108.756 67.301 109.398 67.9435 109.398 68.736ZM83.109 56.429C83.9015 56.429 84.544 55.7865 84.544 54.994C84.544 54.2015 83.9015 53.559 83.109 53.559C82.3165 53.559 81.674 54.2015 81.674 54.994C81.674 55.7865 82.3165 56.429 83.109 56.429ZM101.845 82.476C101.845 83.2691 101.205 83.912 100.415 83.912C99.6252 83.912 98.985 83.2691 98.985 82.476C98.985 81.6829 99.6252 81.04 100.415 81.04C101.205 81.04 101.845 81.6829 101.845 82.476ZM99.697 56C100.49 56 101.132 55.3575 101.132 54.565C101.132 53.7725 100.49 53.13 99.697 53.13C98.9045 53.13 98.262 53.7725 98.262 54.565C98.262 55.3575 98.9045 56 99.697 56ZM85.263 82.906C85.263 83.6985 84.6205 84.341 83.828 84.341C83.0355 84.341 82.393 83.6985 82.393 82.906C82.393 82.1135 83.0355 81.471 83.828 81.471C84.6205 81.471 85.263 82.1135 85.263 82.906Z" fill="#363636"/>
</svg>
