<svg width="160" height="160" viewBox="0 0 160 160" fill="none" xmlns="http://www.w3.org/2000/svg">
<path fill-rule="evenodd" clip-rule="evenodd" d="M119.531 68.535L127.129 69.979C128.187 70.323 128.953 70.808 128.953 71.83V78.823C128.953 79.846 128.283 80.256 127.129 80.675L119.531 82.106C118.523 82.106 117.707 81.277 117.707 80.254V70.386C117.707 69.364 118.523 68.535 119.531 68.535ZM94.938 49.024C94.938 49.024 99.17 48.403 99.17 53.483V98.739C99.17 98.739 99.357 103.762 95.731 103.763C92.105 103.763 73.21 101.854 73.21 101.854L64.149 88.333C64.149 88.333 63.114 86.472 61.717 86.472C60.321 86.472 59.212 88.3 59.212 88.3L51.076 99.968L34.599 98.565C34.599 98.565 32 98.555 32 94.812L32.001 58.532C32.001 58.532 31.844 54.552 34.838 54.145C37.832 53.738 94.938 49.024 94.938 49.024ZM38.286 75.917C38.286 81.591 41.284 86.192 44.982 86.192C48.68 86.192 51.678 81.591 51.678 75.917C51.678 70.243 48.68 65.642 44.982 65.642C41.284 65.642 38.286 70.243 38.286 75.917ZM72.699 75.917C72.699 82.379 76.478 87.618 81.14 87.618C85.802 87.618 89.582 82.379 89.582 75.917C89.582 69.454 85.802 64.215 81.14 64.215C76.479 64.215 72.699 69.454 72.699 75.917ZM116.131 69.003V81.639C116.131 82.947 117.176 84.009 118.466 84.007L126.792 82.44V90.353C126.792 92.709 124.991 96.092 122.59 96.925L99.325 103.99C100.842 102.846 101.292 101.136 101.292 98.78V53.571C101.292 51.215 101.019 50.566 99.403 49.175L122.59 55.755C125.084 56.589 126.792 57.665 126.792 60.02V68.214L118.466 66.633C117.176 66.633 116.131 67.694 116.131 69.003Z" fill="#363636"/>
</svg>
