<svg width="160" height="160" viewBox="0 0 160 160" fill="none" xmlns="http://www.w3.org/2000/svg">
<path d="M26.052 46.258C20.507 46.745 15.838 47.85 14.575 48.93C13.853 49.546 13.853 49.546 14.343 50.086C14.987 50.806 18.056 51.731 21.59 52.323C25.588 52.991 34.1 53.016 35.314 52.374C36.525 51.706 36.938 50.96 36.938 49.393C36.938 47.774 36.318 46.977 34.72 46.54C33.274 46.154 28.94 46 26.052 46.258ZM39.774 46.488C39.645 46.771 39.516 48.596 39.516 50.6C39.516 54.661 39.671 54.378 37.324 54.533L36.294 54.61L36.164 57.155L36.035 59.699L34.849 59.982C32.269 60.65 30.849 62.577 31.057 65.276C31.185 67.203 32.087 68.617 33.636 69.363C34.745 69.876 35.106 69.901 44.882 69.901C50.427 69.901 55.019 69.98 55.07 70.081C55.121 70.211 53.96 79.489 52.49 90.721C51.046 101.951 49.808 111.718 49.782 112.387C49.731 114.004 50.608 115.007 52.13 115.007C53.367 115.007 54.142 114.367 54.451 113.107C54.581 112.593 55.947 102.773 57.469 91.285C58.991 79.822 60.332 70.416 60.409 70.416C60.513 70.416 61.493 71.829 62.602 73.552C65.542 78.178 65.001 77.869 70.237 77.869H74.596V83.499L69.463 83.576C64.743 83.653 64.253 83.703 63.582 84.191C62.009 85.348 61.957 85.606 61.957 95.168C61.957 104.702 61.983 104.96 63.479 106.218L64.33 106.913H95.695L96.546 106.217C98.042 104.96 98.066 104.702 98.066 95.167C98.066 85.607 98.016 85.348 96.444 84.191C95.773 83.703 95.283 83.653 90.562 83.576L85.43 83.499V77.869H89.79C95.024 77.869 94.483 78.178 97.423 73.552C98.533 71.829 99.513 70.416 99.617 70.416C99.693 70.416 101.035 79.822 102.557 91.285C104.079 102.773 105.446 112.593 105.575 113.106C105.885 114.366 106.657 115.008 107.896 115.008C109.417 115.008 110.296 114.004 110.243 112.387C110.217 111.717 108.979 101.951 107.533 90.721C106.065 79.489 104.903 70.211 104.956 70.081C105.006 69.98 109.597 69.901 115.146 69.901C124.92 69.901 125.281 69.876 126.389 69.363C127.937 68.617 128.839 67.203 128.969 65.276C129.175 62.577 127.757 60.65 125.177 59.982L123.99 59.699L123.863 57.155L123.733 54.61L122.702 54.533C120.355 54.378 120.508 54.661 120.508 50.6C120.508 48.596 120.38 46.771 120.251 46.488C120.045 46.128 119.708 46 118.884 46C118.265 46 117.646 46.128 117.464 46.309C117.258 46.514 117.154 47.774 117.154 50.241C117.154 52.708 117.052 53.968 116.845 54.173C116.665 54.353 115.944 54.481 115.195 54.481C113.57 54.481 113.545 54.533 113.545 57.591V59.878H46.48V57.591C46.48 54.533 46.456 54.481 44.83 54.481C44.082 54.481 43.36 54.352 43.18 54.173C42.973 53.968 42.87 52.708 42.87 50.241C42.87 47.774 42.767 46.514 42.56 46.309C42.38 46.129 41.76 46 41.142 46C40.317 46 39.982 46.128 39.774 46.488V46.488ZM82.617 86.608C85.506 87.507 88.009 90.001 88.783 92.776C89.222 94.319 89.093 96.992 88.499 98.56C87.803 100.435 85.814 102.57 83.934 103.495C82.644 104.137 82.18 104.214 80.013 104.214C77.846 104.214 77.382 104.137 76.093 103.495C74.208 102.569 72.223 100.435 71.526 98.56C70.934 96.992 70.804 94.32 71.243 92.776C71.991 90.053 74.493 87.506 77.304 86.608C79.316 85.966 80.604 85.966 82.617 86.608V86.608Z" fill="#363636"/>
<path d="M77.794 90.438C75.757 91.363 74.287 94.087 74.725 96.168C75.499 99.845 79.548 101.721 82.721 99.87C84.706 98.712 85.711 96.323 85.171 94.087C84.603 91.697 82.437 89.949 80.013 89.949C79.367 89.949 78.387 90.181 77.793 90.438H77.794ZM50.092 46.154C46.172 46.822 45.579 47.285 45.579 49.598C45.579 51.423 46.042 52.014 47.847 52.554C49.397 53.016 55.019 53.068 58.347 52.682C65.207 51.86 69.668 50.138 68.045 48.93C66.78 48.03 63.143 47.054 58.991 46.54C56.516 46.232 50.995 46 50.091 46.154H50.092ZM103.484 46.258C97.165 46.848 91.62 48.339 91.62 49.444C91.62 51.166 99.46 52.914 107.25 52.939C113.054 52.939 114.446 52.297 114.446 49.599C114.446 47.774 113.827 46.977 112.073 46.514C110.423 46.103 106.398 46 103.484 46.258ZM126.776 46.283C124.996 46.514 123.758 47.053 123.346 47.774C122.959 48.544 123.036 50.678 123.5 51.346C124.428 52.656 125.152 52.811 130.568 52.811C134.229 52.811 136.37 52.682 138.435 52.323C141.969 51.731 145.038 50.806 145.683 50.086C146.173 49.546 146.173 49.546 145.45 48.93C144.11 47.8 139.492 46.745 133.534 46.258C130.053 45.975 129.046 45.975 126.776 46.283V46.283Z" fill="#363636"/>
</svg>
