<svg width="160" height="160" viewBox="0 0 160 160" fill="none" xmlns="http://www.w3.org/2000/svg">
<path d="M119.821 47.011H40.33C39.4845 47.011 38.6736 47.3469 38.0757 47.9447C37.4779 48.5426 37.142 49.3535 37.142 50.199V96.612C37.1417 97.0308 37.224 97.4455 37.3841 97.8325C37.5442 98.2194 37.779 98.571 38.0751 98.8672C38.3712 99.1634 38.7227 99.3983 39.1096 99.5585C39.4965 99.7187 39.9112 99.8011 40.33 99.801H119.822C120.241 99.8011 120.656 99.7187 121.043 99.5585C121.43 99.3983 121.781 99.1634 122.077 98.8673C122.373 98.5711 122.608 98.2195 122.769 97.8325C122.929 97.4456 123.011 97.0308 123.011 96.612V50.199C123.011 49.7802 122.928 49.3656 122.768 48.9787C122.607 48.5918 122.372 48.2404 122.076 47.9443C121.78 47.6483 121.428 47.4135 121.041 47.2534C120.654 47.0932 120.24 47.0109 119.821 47.011V47.011ZM45.392 80.236H45.166C44.3203 80.2357 43.5093 79.8997 42.9113 79.3017C42.3133 78.7037 41.9773 77.8927 41.977 77.047V69.764C41.977 69.3453 42.0595 68.9306 42.2198 68.5438C42.38 68.1569 42.615 67.8054 42.9111 67.5094C43.2072 67.2133 43.5588 66.9785 43.9457 66.8184C44.3326 66.6582 44.7473 66.5759 45.166 66.576H45.392V80.236ZM106.623 95.408H50.341V51.402H106.623V95.408V95.408ZM115.4 77.552C113.111 77.552 111.254 75.697 111.254 73.405C111.254 71.113 113.11 69.258 115.4 69.258C116.5 69.258 117.555 69.6949 118.332 70.4726C119.11 71.2503 119.547 72.3051 119.547 73.405C119.547 74.5049 119.11 75.5597 118.332 76.3374C117.555 77.1151 116.5 77.552 115.4 77.552V77.552ZM68.497 43H91.654V45.758H68.497V43ZM83.608 107.861V104.888H91.654V102.13H68.498V104.888H76.543V140.134C75.4623 140.607 74.543 141.385 73.8974 142.372C73.2518 143.359 72.908 144.513 72.908 145.693V160H87.243V145.693C87.2433 144.513 86.8995 143.359 86.2536 142.372C85.6078 141.385 84.688 140.608 83.607 140.136V112.146H88.403L93.454 113.359V106.648L88.403 107.861H83.608V107.861Z" fill="#363636"/>
</svg>
