<svg width="24" height="24" viewBox="0 0 24 24" fill="none" xmlns="http://www.w3.org/2000/svg">
<path fill-rule="evenodd" clip-rule="evenodd" d="M16.0326 3H7.96729C5.22827 3 3 5.22841 3 7.96735V16.0326C3 18.7717 5.22827 21 7.96729 21H16.0326C18.7717 21 21 18.7716 21 16.0326V7.96735C21.0001 5.22841 18.7717 3 16.0326 3ZM20.0001 16.3579C20.0001 18.3662 18.3662 20 16.3579 20H7.64197C5.63379 20.0001 4 18.3662 4 16.3579V7.64212C4 5.63392 5.63379 4 7.64197 4H16.3578C18.3661 4 20 5.63392 20 7.64212L20.0001 16.3579ZM7.36182 12.0002C7.36182 9.4427 9.4425 7.36207 12 7.36207C14.5575 7.36207 16.6381 9.4427 16.6381 12.0002C16.6381 14.5576 14.5575 16.6381 12 16.6381C9.4425 16.6381 7.36182 14.5576 7.36182 12.0002ZM16.4348 5.83418C16.5833 5.68509 16.7898 5.6 17 5.6C17.2108 5.6 17.4174 5.68509 17.5658 5.83418C17.7148 5.98255 17.7999 6.18909 17.7999 6.4C17.7999 6.61018 17.7148 6.81673 17.5658 6.96582C17.4166 7.11418 17.2108 7.2 17 7.2C16.7898 7.2 16.5833 7.11418 16.4348 6.96582C16.2858 6.81673 16.2 6.61025 16.2 6.4C16.2 6.18909 16.2856 5.98255 16.4348 5.83418Z" fill="white"/>
<mask id="mask0" mask-type="alpha" maskUnits="userSpaceOnUse" x="7" y="5" width="11" height="12">
<path fill-rule="evenodd" clip-rule="evenodd" d="M16.4348 5.83418C16.5833 5.68509 16.7898 5.6 17 5.6C17.2108 5.6 17.4174 5.68509 17.5658 5.83418C17.7148 5.98255 17.7999 6.18909 17.7999 6.4C17.7999 6.61018 17.7148 6.81673 17.5658 6.96582C17.4166 7.11418 17.2108 7.2 17 7.2C16.7898 7.2 16.5833 7.11418 16.4348 6.96582C16.2858 6.81673 16.2 6.61025 16.2 6.4C16.2 6.18909 16.2856 5.98255 16.4348 5.83418ZM12 7.36207C9.4425 7.36207 7.36182 9.4427 7.36182 12.0002C7.36182 14.5576 9.4425 16.6381 12 16.6381C14.5575 16.6381 16.6381 14.5576 16.6381 12.0002C16.6381 9.4427 14.5575 7.36207 12 7.36207ZM12 15.8397C9.88269 15.8397 8.16003 14.1173 8.16003 12C8.16003 9.88258 9.88257 8.16 12 8.16C14.1174 8.16 15.8401 9.88258 15.8401 12C15.8401 14.1173 14.1173 15.8397 12 15.8397Z" fill="white"/>
</mask>
<g mask="url(#mask0)">
</g>
</svg>
