<svg width="24" height="24" viewBox="0 0 24 24" fill="none" xmlns="http://www.w3.org/2000/svg">
<path fill-rule="evenodd" clip-rule="evenodd" d="M19.5 3H4.5C3.66003 3 3 3.65999 3 4.50001V19.5C3 20.34 3.66003 21 4.5 21H11.4H15H19.5C20.34 21 21 20.34 21 19.5V4.50001C21 3.65999 20.34 3 19.5 3ZM12.0519 14.2609H9.80005V11.9652H12.0519V9.95653C12.0519 8.32088 13.2904 6.94349 14.8667 6.8H17.4V9.09566H15.1482C14.6697 9.09566 14.3037 9.46869 14.3037 9.95653V11.9652H17.1185V14.2609H14.3038V20.2H12.0519V14.2609ZM14.9286 20.2H19.3215C19.8193 20.2 20.2001 19.8193 20.2001 19.3214V4.67857C20.2001 4.1807 19.8193 3.8 19.3215 3.8H4.67859C4.18079 3.8 3.80005 4.1807 3.80005 4.67857V19.3214C3.80005 19.8193 4.18079 20.2 4.67859 20.2L11.4143 20.2V14.9286H9.07141V11.4143H11.4143V9.94997C11.4143 7.98784 12.9373 6.31855 14.8993 6.14284H18.15V9.65713H15.2214C15.0458 9.65713 14.9286 9.77426 14.9286 9.94997V11.4143H17.8572V14.9286H14.9286V20.2Z" fill="white"/>
<mask id="mask0" mask-type="alpha" maskUnits="userSpaceOnUse" x="3" y="3" width="18" height="18">
<path fill-rule="evenodd" clip-rule="evenodd" d="M19.5 3H4.5C3.66003 3 3 3.65999 3 4.50001V19.5C3 20.34 3.66003 21 4.5 21H11.4H15H19.5C20.34 21 21 20.34 21 19.5V4.50001C21 3.65999 20.34 3 19.5 3ZM12.0519 14.2609H9.80005V11.9652H12.0519V9.95653C12.0519 8.32088 13.2904 6.94349 14.8667 6.8H17.4V9.09566H15.1482C14.6697 9.09566 14.3037 9.46869 14.3037 9.95653V11.9652H17.1185V14.2609H14.3038V20.2H12.0519V14.2609ZM14.9286 20.2H19.3215C19.8193 20.2 20.2001 19.8193 20.2001 19.3214V4.67857C20.2001 4.1807 19.8193 3.8 19.3215 3.8H4.67859C4.18079 3.8 3.80005 4.1807 3.80005 4.67857V19.3214C3.80005 19.8193 4.18079 20.2 4.67859 20.2L11.4143 20.2V14.9286H9.07141V11.4143H11.4143V9.94997C11.4143 7.98784 12.9373 6.31855 14.8993 6.14284H18.15V9.65713H15.2214C15.0458 9.65713 14.9286 9.77426 14.9286 9.94997V11.4143H17.8572V14.9286H14.9286V20.2Z" fill="white"/>
</mask>
<g mask="url(#mask0)">
</g>
</svg>
