<svg width="24" height="24" viewBox="0 0 24 24" fill="none" xmlns="http://www.w3.org/2000/svg">
<path fill-rule="evenodd" clip-rule="evenodd" d="M20.5303 6.09487C20.6525 6.06362 20.8053 6.09487 20.8969 6.1886C20.9885 6.28233 21.019 6.43856 20.9885 6.56358C20.7136 7.46975 20.1637 8.12596 19.4915 8.46969V8.56342C19.4915 14.5942 15.092 19.5 9.71484 19.5C6.69019 19.5 4.24609 18.9688 3.14624 18.0626C3.02393 17.9376 2.96289 17.7814 3.02393 17.5939C3.08508 17.4377 3.23779 17.3127 3.42114 17.3127C5.22375 17.2814 6.38464 16.844 7.27063 16.3127C5.55981 16.094 4.49048 15.2503 3.94055 13.6567C3.87939 13.5005 3.94055 13.3443 4.06274 13.2505C4.18494 13.1567 4.36829 13.1567 4.49048 13.2192C4.94873 13.5317 5.40698 13.5942 5.95691 13.5942C4.7959 12.8756 3.72668 11.6881 3.29895 10.2195C3.26831 10.0633 3.32947 9.87582 3.45166 9.81331C3.60437 9.71959 3.7572 9.75084 3.87939 9.84457C4.21545 10.1258 4.58215 10.3133 5.13208 10.407C3.94055 9.15711 3.20728 7.31352 4.24597 5.28243L4.42932 4.90744L4.73474 5.21992C6.62903 7.25101 8.37048 8.18843 11.548 8.81338V8.6884C11.548 6.40735 13.2894 4.5325 15.4586 4.50124C16.314 4.50124 17.5055 5.12619 17.9944 5.40741C18.006 5.40741 18.0177 5.41197 18.0277 5.41586C18.0438 5.42216 18.0555 5.42674 18.0555 5.40741C18.6665 5.21996 19.3998 4.90748 20.2552 4.5325C20.3774 4.47002 20.5303 4.50128 20.6218 4.59501C20.7136 4.68877 20.7441 4.81375 20.683 4.96999C20.5303 5.40745 20.2859 5.87616 19.9192 6.31362L20.5303 6.09487ZM18.7355 8.23772L18.9133 8.17735C19.4764 7.96612 19.8025 7.51342 20.01 7.12114L18.854 7.51346C18.7058 7.57383 18.528 7.51346 18.4688 7.36256C18.4094 7.21166 18.4391 7.03058 18.5576 6.94005C19.0319 6.5477 19.3876 6.12519 19.6543 5.6725C19.0615 5.91392 18.528 6.12519 18.0834 6.27609C17.9055 6.33643 17.7277 6.30624 17.5498 6.21572L17.5314 6.20549C17.1835 6.01201 16.0852 5.4014 15.4158 5.43104C13.6373 5.46123 12.2146 7.00039 12.2146 8.8715V9.71651L11.859 9.65614C8.59851 9.05255 6.79053 8.17735 4.89355 6.27606C4.00427 8.56971 5.84204 10.1692 6.46448 10.6219L7.20544 11.1652H6.28662C5.69373 11.1652 5.04175 11.1048 4.44885 10.8332C5.10095 12.2214 6.43481 13.2475 7.56116 13.5795L7.47217 14.1831C7.23511 14.1831 6.99792 14.1831 6.76086 14.2133C6.13843 14.2434 5.5752 14.2434 5.04175 14.0624C5.63452 15.2092 6.672 15.692 8.36145 15.692H9.25061L8.50964 16.2353C7.59082 16.9596 6.40515 17.6235 4.35999 17.7744C5.33813 18.2573 7.14612 18.71 9.84338 18.71C14.4647 18.71 18.7355 13.999 18.7355 8.75079V8.23772Z" fill="white"/>
<mask id="mask0" mask-type="alpha" maskUnits="userSpaceOnUse" x="3" y="4" width="18" height="16">
<path fill-rule="evenodd" clip-rule="evenodd" d="M20.5303 6.09487C20.6525 6.06362 20.8053 6.09487 20.8969 6.1886C20.9885 6.28233 21.019 6.43856 20.9885 6.56358C20.7136 7.46975 20.1637 8.12596 19.4915 8.46969V8.56342C19.4915 14.5942 15.092 19.5 9.71484 19.5C6.69019 19.5 4.24609 18.9688 3.14624 18.0626C3.02393 17.9376 2.96289 17.7814 3.02393 17.5939C3.08508 17.4377 3.23779 17.3127 3.42114 17.3127C5.22375 17.2814 6.38464 16.844 7.27063 16.3127C5.55981 16.094 4.49048 15.2503 3.94055 13.6567C3.87939 13.5005 3.94055 13.3443 4.06274 13.2505C4.18494 13.1567 4.36829 13.1567 4.49048 13.2192C4.94873 13.5317 5.40698 13.5942 5.95691 13.5942C4.7959 12.8756 3.72668 11.6881 3.29895 10.2195C3.26831 10.0633 3.32947 9.87582 3.45166 9.81331C3.60437 9.71959 3.7572 9.75084 3.87939 9.84457C4.21545 10.1258 4.58215 10.3133 5.13208 10.407C3.94055 9.15711 3.20728 7.31352 4.24597 5.28243L4.42932 4.90744L4.73474 5.21992C6.62903 7.25101 8.37048 8.18843 11.548 8.81338V8.6884C11.548 6.40735 13.2894 4.5325 15.4586 4.50124C16.314 4.50124 17.5055 5.12619 17.9944 5.40741C18.006 5.40741 18.0177 5.41197 18.0277 5.41586C18.0438 5.42216 18.0555 5.42674 18.0555 5.40741C18.6665 5.21996 19.3998 4.90748 20.2552 4.5325C20.3774 4.47002 20.5303 4.50128 20.6218 4.59501C20.7136 4.68877 20.7441 4.81375 20.683 4.96999C20.5303 5.40745 20.2859 5.87616 19.9192 6.31362L20.5303 6.09487ZM18.7355 8.23772L18.9133 8.17735C19.4764 7.96612 19.8025 7.51342 20.01 7.12114L18.854 7.51346C18.7058 7.57383 18.528 7.51346 18.4688 7.36256C18.4094 7.21166 18.4391 7.03058 18.5576 6.94005C19.0319 6.5477 19.3876 6.12519 19.6543 5.6725C19.0615 5.91392 18.528 6.12519 18.0834 6.27609C17.9055 6.33643 17.7277 6.30624 17.5498 6.21572L17.5314 6.20549C17.1835 6.01201 16.0852 5.4014 15.4158 5.43104C13.6373 5.46123 12.2146 7.00039 12.2146 8.8715V9.71651L11.859 9.65614C8.59851 9.05255 6.79053 8.17735 4.89355 6.27606C4.00427 8.56971 5.84204 10.1692 6.46448 10.6219L7.20544 11.1652H6.28662C5.69373 11.1652 5.04175 11.1048 4.44885 10.8332C5.10095 12.2214 6.43481 13.2475 7.56116 13.5795L7.47217 14.1831C7.23511 14.1831 6.99792 14.1831 6.76086 14.2133C6.13843 14.2434 5.5752 14.2434 5.04175 14.0624C5.63452 15.2092 6.672 15.692 8.36145 15.692H9.25061L8.50964 16.2353C7.59082 16.9596 6.40515 17.6235 4.35999 17.7744C5.33813 18.2573 7.14612 18.71 9.84338 18.71C14.4647 18.71 18.7355 13.999 18.7355 8.75079V8.23772Z" fill="white"/>
</mask>
<g mask="url(#mask0)">
</g>
</svg>
