<svg width="24" height="18" viewBox="0 0 24 18" fill="none" xmlns="http://www.w3.org/2000/svg">
<path fill-rule="evenodd" clip-rule="evenodd" d="M11.5314 15.9978L10.3771 18L9.22286 15.9978L1.15301 2L0 0L2.30856 2.02117e-07L18.4457 1.61493e-06L20.7543 1.81705e-06L19.6013 2L18.7424 3.4898L21.6914 3.4898L24 3.4898L22.847 5.4898L16.789 15.9978L15.6347 18L14.4805 15.9978L13.0059 13.4401L11.5314 15.9978ZM14.1602 11.4379L15.6347 13.9956L20.5384 5.4898L17.5894 5.48979L14.1602 11.4379ZM15.2808 5.48979L13.0059 9.43573L10.7311 5.48979L15.2808 5.48979ZM16.4338 3.4898L9.57807 3.48979L7.26951 3.48979L8.42252 5.48979L11.8517 11.4379L10.3771 13.9956L3.46157 2L17.2927 2L16.4338 3.4898Z" fill="black"/>
</svg>
