<svg width="24" height="24" viewBox="0 0 24 24" fill="none" xmlns="http://www.w3.org/2000/svg">
<path id="Facebook" fill-rule="evenodd" clip-rule="evenodd" d="M12.8192 24C11.8033 24 8.14774 24 4.99893 24C2.2375 24 2.85612e-06 21.7617 4.10669e-05 19.0003C0.000104495 14.4165 0.000212853 9.58378 0.000151169 4.99994C0.000114008 2.23842 2.23873 0 5.00025 0H19C21.7615 0 24 2.23808 24 4.9995C24 9.08408 24 14.842 24 19.0023C24 21.7637 21.7608 24 18.9994 24C17.9474 24 17.0175 24 16.5597 24V14.7059H19.6793L20.1464 11.0838H16.5597V8.77132C16.5597 7.72264 16.8509 7.008 18.3547 7.008L20.2727 7.00717V3.76755C19.941 3.7234 18.8024 3.62479 17.4778 3.62479C14.7124 3.62479 12.8192 5.31276 12.8192 8.4126V11.0838H9.69159V14.7059H12.8192V24Z" fill="black"/>
</svg>
