<svg width="24" height="24" viewBox="0 0 24 24" fill="none" xmlns="http://www.w3.org/2000/svg">
<path fill-rule="evenodd" clip-rule="evenodd" d="M12.2308 1H12.2297C12.209 1 12.1895 1 12.171 1.00025C12.0232 1.00174 11.7803 1.00409 11.7584 1.00434C11.2257 1.00434 10.1597 1.07938 9.01461 1.58333C8.35992 1.87127 7.77103 2.26061 7.26438 2.74055C6.66032 3.31241 6.16821 4.01747 5.802 4.83646C5.26567 6.03561 5.39299 8.05542 5.49524 9.67858L5.49561 9.68112C5.50656 9.85496 5.51807 10.0365 5.52858 10.2133C5.4499 10.2494 5.32233 10.2874 5.13431 10.2874C4.83178 10.2874 4.47203 10.191 4.06533 10.0009C3.94566 9.94538 3.80907 9.91728 3.65837 9.91728C3.41624 9.91728 3.16098 9.98835 2.93956 10.1182C2.66098 10.2813 2.48098 10.5118 2.43209 10.7673C2.39987 10.9364 2.40143 11.2705 2.77368 11.6094C2.97843 11.7959 3.27922 11.968 3.66745 12.121C3.76933 12.161 3.89024 12.1992 4.01831 12.2397C4.4627 12.3805 5.1353 12.5933 5.3107 13.0049C5.39958 13.2136 5.36133 13.4882 5.19732 13.8201C5.19302 13.8292 5.18873 13.838 5.18481 13.8473C5.14383 13.9428 4.76144 14.8064 3.97707 15.7172C3.53136 16.2352 3.04044 16.6681 2.51873 17.0042C1.88196 17.4146 1.19294 17.6829 0.471013 17.8014C0.187518 17.8478 -0.0149338 18.0997 0.00086428 18.3859C0.00571566 18.4684 0.0251212 18.5506 0.0587699 18.6302C0.0590187 18.6307 0.0593296 18.6312 0.0595784 18.6316C0.174208 18.8989 0.439976 19.126 0.87206 19.3264C1.40005 19.5709 2.18971 19.7766 3.21888 19.9375C3.27088 20.0361 3.32487 20.284 3.36225 20.4536C3.40137 20.634 3.44217 20.8194 3.50033 21.0164C3.56308 21.2298 3.72585 21.4848 4.14401 21.4848C4.30248 21.4848 4.48472 21.4492 4.69576 21.4084C5.00481 21.3479 5.42744 21.2654 5.95494 21.2654C6.24739 21.2654 6.55048 21.2911 6.85555 21.3416C7.44363 21.4393 7.9506 21.7963 8.53718 22.2099C9.39575 22.815 10.3676 23.5 11.8524 23.5C11.8929 23.5 11.9335 23.4987 11.9736 23.4959C12.0227 23.4982 12.0835 23.5 12.1477 23.5C13.633 23.5 14.6046 22.8148 15.4622 22.2101L15.4636 22.2089C16.0503 21.7958 16.5567 21.4393 17.1446 21.3416C17.4495 21.2912 17.7526 21.2654 18.0451 21.2654C18.5491 21.2654 18.9481 21.3295 19.3043 21.3988C19.5368 21.4444 19.7175 21.4664 19.8561 21.4664L19.8697 21.4666H19.8838C20.1896 21.4666 20.4143 21.2992 20.5001 21.0063C20.557 20.8135 20.5977 20.6324 20.6378 20.449C20.6728 20.29 20.7286 20.0351 20.7806 19.9355C21.8105 19.7742 22.5998 19.569 23.1279 19.3245C23.559 19.1251 23.8244 18.8983 23.9398 18.632C23.9743 18.5522 23.9945 18.4695 23.9991 18.3853C24.0153 18.0995 23.8126 17.8472 23.5289 17.8008C20.3204 17.2735 18.875 13.9864 18.8153 13.8468C18.8114 13.8376 18.8071 13.8285 18.8025 13.8196C18.6385 13.4876 18.6006 13.2133 18.6896 13.0042C18.8646 12.593 19.5368 12.3802 19.9815 12.2394C20.1102 12.199 20.2316 12.1605 20.3326 12.1207C20.7704 11.9483 21.0833 11.7613 21.2898 11.5489C21.5363 11.2957 21.5843 11.0531 21.5814 10.8943C21.5738 10.5102 21.2793 10.1688 20.8109 10.0017C20.6526 9.93645 20.4722 9.90203 20.2885 9.90203C20.1634 9.90203 19.9782 9.91914 19.8028 10.0008C19.4275 10.1759 19.0912 10.2716 18.8026 10.2853C18.6491 10.2775 18.5414 10.2444 18.4717 10.2127C18.4805 10.0628 18.4902 9.90891 18.5002 9.74841L18.5043 9.6797C18.6072 8.05549 18.7349 6.03412 18.1983 4.8341C17.8306 4.0122 17.3367 3.30534 16.7302 2.73224C16.2216 2.25199 15.6307 1.86271 14.9737 1.57495C13.8302 1.07473 12.7643 1 12.2308 1" fill="black"/>
</svg>
