<svg height="35" viewBox="0 0 189 35" width="189" xmlns="http://www.w3.org/2000/svg"><path d="m8.888.4c2.7520138 0 4.7439938.6399936 5.976 1.92s1.848 3.21598704 1.848 5.808v1.2c0 1.7280086-.2719973 3.1519944-.816 4.272s-1.4079941 1.9519973-2.592 2.496c1.4400072.5440027 2.455997 1.4319938 3.048 2.664s.888 2.743991.888 4.536v2.736c0 2.592013-.6719933 4.5679932-2.016 5.928s-3.3439867 2.04-6 2.04h-8.304v-33.6zm-2.688 18.48v10.32h3.024c.8960045 0 1.5759977-.2399976 2.04-.72s.696-1.3439938.696-2.592v-2.928c0-1.5680078-.2639974-2.6399971-.792-3.216s-1.39999392-.864-2.616-.864zm0-13.68v8.88h2.064c.99200496 0 1.7679972-.2559974 2.328-.768s.84-1.4399933.84-2.784v-1.872c0-1.21600608-.2159978-2.09599728-.648-2.64s-1.11199536-.816-2.04-.816zm31.296 28.8h-5.328l-.912-6.096h-6.48l-.912 6.096h-4.848l5.376-33.6h7.728zm-12.048-10.656h5.088l-2.544-16.992zm25.536 10.656c-.0640003-.2240011-.1279997-.431999-.192-.624s-.1199998-.4319986-.168-.72-.0799999-.6559978-.096-1.104-.024-1.0079966-.024-1.68v-5.28c0-1.5680078-.2719973-2.6719968-.816-3.312s-1.4239939-.96-2.64-.96h-1.824v13.68h-5.28v-33.6h7.968c2.7520138 0 4.7439938.6399936 5.976 1.92s1.848 3.21598704 1.848 5.808v2.64c0 3.4560173-1.1519885 5.7279946-3.456 6.816 1.3440067.5440027 2.2639975 1.4319938 2.76 2.664s.744 2.7279912.744 4.488v5.184c0 .8320042.0319997 1.5599969.096 2.184s.2239987 1.2559968.48 1.896zm-5.76-28.8v10.32h2.064c.992005 0 1.7679972-.2559974 2.328-.768s.84-1.4399933.84-2.784v-3.312c0-1.21600608-.2159978-2.09599728-.648-2.64s-1.1119954-.816-2.04-.816zm21.984-4.8c2.7520138 0 4.7439938.6399936 5.976 1.92s1.848 3.21598704 1.848 5.808v1.2c0 1.7280086-.2719973 3.1519944-.816 4.272s-1.4079941 1.9519973-2.592 2.496c1.4400072.5440027 2.455997 1.4319938 3.048 2.664s.888 2.743991.888 4.536v2.736c0 2.592013-.6719933 4.5679932-2.016 5.928s-3.3439867 2.04-6 2.04h-8.304v-33.6zm-2.688 18.48v10.32h3.024c.8960045 0 1.5759977-.2399976 2.04-.72s.696-1.3439938.696-2.592v-2.928c0-1.5680078-.2639974-2.6399971-.792-3.216s-1.3999939-.864-2.616-.864zm0-13.68v8.88h2.064c.992005 0 1.7679972-.2559974 2.328-.768s.84-1.4399933.84-2.784v-1.872c0-1.21600608-.2159978-2.09599728-.648-2.64s-1.1119954-.816-2.04-.816zm19.488 9.36h7.248v4.8h-7.248v9.84h9.12v4.8h-14.4v-33.6h14.4v4.8h-9.12zm23.424 19.44c-.064-.2240011-.128-.431999-.192-.624s-.12-.4319986-.168-.72-.08-.6559978-.096-1.104-.024-1.0079966-.024-1.68v-5.28c0-1.5680078-.271997-2.6719968-.816-3.312s-1.423994-.96-2.64-.96h-1.824v13.68h-5.28v-33.6h7.968c2.752014 0 4.743994.6399936 5.976 1.92s1.848 3.21598704 1.848 5.808v2.64c0 3.4560173-1.151988 5.7279946-3.456 6.816 1.344007.5440027 2.263998 1.4319938 2.76 2.664s.744 2.7279912.744 4.488v5.184c0 .8320042.032 1.5599969.096 2.184s.223999 1.2559968.48 1.896zm-5.76-28.8v10.32h2.064c.992005 0 1.767997-.2559974 2.328-.768s.84-1.4399933.84-2.784v-3.312c0-1.21600608-.215998-2.09599728-.648-2.64s-1.111995-.816-2.04-.816zm13.344 3.264c0-2.7200136.647994-4.80799272 1.944-6.264s3.239987-2.184 5.832-2.184 4.535994.72799272 5.832 2.184 1.944 3.5439864 1.944 6.264v1.296h-4.992v-1.632c0-1.21600608-.231998-2.07199752-.696-2.568s-1.111996-.744-1.944-.744-1.479998.24799752-1.944.744-.696 1.35199392-.696 2.568c0 1.15200576.255997 2.1679956.768 3.048s1.151996 1.7119961 1.92 2.496 1.591996 1.5679961 2.472 2.352 1.703996 1.6399954 2.472 2.568 1.407997 1.9839941 1.92 3.168.768 2.575992.768 4.176c0 2.7200136-.663993 4.8079927-1.992 6.264s-3.287987 2.184-5.88 2.184-4.551993-.7279927-5.88-2.184-1.992-3.5439864-1.992-6.264v-2.304h4.992v2.64c0 1.2160061.247998 2.0639976.744 2.544s1.159996.72 1.992.72 1.495998-.2399976 1.992-.72.744-1.3279939.744-2.544c0-1.1520058-.255997-2.1679956-.768-3.048s-1.151996-1.7119961-1.92-2.496-1.591996-1.5679961-2.472-2.352-1.703996-1.6399954-2.472-2.568-1.407997-1.9839941-1.92-3.168-.768-2.575992-.768-4.176zm23.904 25.536h-5.28v-33.6h5.28v14.4h6v-14.4h5.376v33.6h-5.376v-14.4h-6zm20.064-7.728c0 1.2160061.247998 2.0719975.744 2.568s1.159996.744 1.992.744 1.495998-.2479975 1.992-.744.744-1.3519939.744-2.568v-18.144c0-1.21600608-.247998-2.07199752-.744-2.568s-1.159996-.744-1.992-.744-1.495998.24799752-1.992.744-.744 1.35199392-.744 2.568zm-5.28-17.808c0-2.7200136.687993-4.80799272 2.064-6.264s3.359987-2.184 5.952-2.184 4.575993.72799272 5.952 2.184 2.064 3.5439864 2.064 6.264v17.472c0 2.7200136-.687993 4.8079927-2.064 6.264s-3.359987 2.184-5.952 2.184-4.575993-.7279927-5.952-2.184-2.064-3.5439864-2.064-6.264zm27.216-8.064c2.656013 0 4.631994.70399296 5.928 2.112s1.944 3.4719864 1.944 6.192v4.368c0 2.7200136-.647994 4.783993-1.944 6.192s-3.271987 2.112-5.928 2.112h-2.496v12.624h-5.28v-33.6zm-2.496 4.8v11.376h2.496c.832004 0 1.471998-.2239978 1.92-.672s.672-1.2799939.672-2.496v-5.04c0-1.21600608-.223998-2.04799776-.672-2.496s-1.087996-.672-1.92-.672z" fill="#fff" fill-rule="evenodd"/></svg>